<svg xmlns="http://www.w3.org/2000/svg" width="42" height="42" viewBox="0 0 42 42">
    <g fill="none" fill-rule="evenodd">
        <path fill="#38424B" d="M31.485 26.616l-19.183 5.142-.256-.954 19.184-5.141zM32.01 29.76L12.824 34.9l-.255-.955 19.183-5.14z"/>
        <path fill="#38424B" d="M39.72 8.582l-8.246-2.21-1.31-4.889a2.003 2.003 0 0 0-2.45-1.415l-9.89 2.647-4.331-1.162a1.987 1.987 0 0 0-1.518.2 1.97 1.97 0 0 0-.933 1.215l-.452 1.684-9.104 2.44A2.006 2.006 0 0 0 .068 9.547l4.605 17.187-1.506 5.62a1.993 1.993 0 0 0 .199 1.52c.268.464.7.795 1.215.93l2.428.65.931 3.475a2.007 2.007 0 0 0 2.453 1.413l7.431-1.99 12.985 3.48a2.008 2.008 0 0 0 2.453-1.416l1.79-6.68 1.57-.421c.517-.14.948-.47 1.214-.933.268-.464.34-1.003.2-1.518L36.93 26.73l4.208-15.7a2.004 2.004 0 0 0-1.417-2.448zM11.995 3.224a1.011 1.011 0 0 1 1.24-.716l2.678.719-4.225 1.13.307-1.133zM4.839 33.852a1.016 1.016 0 0 1-.718-1.241l1.063-3.97 1.53 5.713-1.875-.502zM32.31 40.16c-.145.54-.702.861-1.244.718l-11.334-3.036 14.217-3.81-1.639 6.128zm4.673-8.27a1.016 1.016 0 0 1-.616.473l-26.23 7.028c-.53.143-1.1-.189-1.241-.718L1.02 9.288a1.016 1.016 0 0 1 .718-1.241l26.228-7.028a1.014 1.014 0 0 1 1.242.716L37.08 31.12a.997.997 0 0 1-.098.772zm3.2-21.112l-3.765 14.044-4.65-17.348 7.694 2.062c.542.145.866.701.72 1.242z"/>
        <path fill="#FF433D" d="M28.655 20.646a.908.908 0 0 1-.908-.907c0-.026 0-.054.004-.08l-1.18-.777.46-.729 1.196.788a.907.907 0 1 1 .427 1.705zM11.759 21.61l-.325.802-1.057-.452a.908.908 0 1 1 .34-.794l1.042.444zM16.771 23.542a.908.908 0 1 1-1.667.578l-2.188-.933.325-.802 2.202.94a.897.897 0 0 1 .566-.197h.004l2.119-3.88.773.385-2.134 3.909zM25.271 17.315l-.46.73-3.334-2.196a.894.894 0 0 1-.43.11h-.004l-1.153 2.109-.774-.387 1.167-2.137a.908.908 0 1 1 1.67-.496c0 .026 0 .052-.004.08l3.322 2.187z"/>
        <path fill="#1ECD93" d="M27.837 16.168a.98.98 0 0 1-.358.145.76.76 0 0 1-.16.015c-.022 0-.04 0-.063-.004a.908.908 0 0 1-.685-.39l-.044-.07a.85.85 0 0 1-.085-.209.843.843 0 0 1-.028-.292.907.907 0 0 1 .909-.857c.288 0 .573.138.748.39a.92.92 0 0 1-.234 1.272z"/>
        <path fill="#000" d="M14.918 17.239v.004c.004 0 .004 0 .007-.004h-.007z"/>
        <path fill="#1ECD93" d="M15.828 16.485a.908.908 0 0 1-.387.769s-.004 0-.004.004a.908.908 0 0 1-.194.103l-.004-.004v.004a.894.894 0 0 1-.22.051c-.032.004-.065.004-.098.004a.905.905 0 0 1-.904-.795.909.909 0 0 1 .327-.816.814.814 0 0 0 .054-.044.897.897 0 0 1 .482-.161h.037a.912.912 0 0 1 .91.885zM12.155 25.284a.908.908 0 0 1-1.267-.232.909.909 0 0 1 .176-1.223.813.813 0 0 0 .054-.044.874.874 0 0 1 .416-.157c.033-.004.066-.004.103-.004a.911.911 0 0 1 .748.39c.028.04.051.085.072.124a.906.906 0 0 1-.302 1.146zM14.583 17.748l-1.751 4.338-.325.802-.248.612a1.292 1.292 0 0 0-.802-.324l.255-.627.325-.803 1.743-4.322c.218.196.503.313.803.324z"/>
        <path fill="#1ECD93" d="M22.695 20.13a1.263 1.263 0 0 0-.376.697l-.011.077-3.337-1.678-.774-.386-2.728-1.372c.22-.208.353-.485.386-.774l2.757 1.386.774.386 3.31 1.665zM27.418 16.429l-.916 1.45-.46.73-.93 1.473a1.258 1.258 0 0 0-.73-.46l.937-1.488.46-.729.908-1.44c.184.237.443.401.73.464z"/>
        <path fill="#000" d="M14.918 17.239v.004c.004 0 .004 0 .007-.004h-.007z"/>
        <path fill="#1ECD93" d="M24.582 20.943a.892.892 0 0 1-.47.74.943.943 0 0 1-.402.112h-.037a.908.908 0 0 1-.748-.393s0-.005-.004-.005a.886.886 0 0 1-.157-.486.908.908 0 0 1 .386-.769s.004 0 .004-.004a.908.908 0 0 1 .516-.161.908.908 0 0 1 .748.395c.014.02.029.046.044.07a.85.85 0 0 1 .084.207.76.76 0 0 1 .036.294z"/>
    </g>
</svg>
