<svg width="65" height="64" viewBox="0 0 65 64" fill="none" xmlns="http://www.w3.org/2000/svg">
<path fill-rule="evenodd" clip-rule="evenodd" d="M19.4912 26.1499C19.9555 26.4429 20.5687 26.3039 20.8616 25.8396C21.1521 25.3754 21.013 24.7622 20.5488 24.4692L3.69384 13.8758L26.4944 2.11802L61.2517 22.2175L38.4111 35.7503L37.9071 35.4326C37.4528 35.2042 36.8967 35.3581 36.6236 35.7876C36.3505 36.2171 36.4473 36.7856 36.8495 37.1009L37.8699 37.7488H37.8674C38.0263 37.8531 38.21 37.9102 38.3987 37.9077C38.575 37.9077 38.7487 37.8581 38.9002 37.7637L63.7262 23.0519C64.0366 22.8781 64.2278 22.5529 64.2278 22.1978C64.2278 21.8453 64.0366 21.5176 63.7262 21.3438L27.0102 0.132115C26.7123 -0.0242631 26.3548 -0.0242631 26.0569 0.132115L1.24288 12.8578C0.925101 13.0167 0.716562 13.3345 0.701665 13.692C0.689251 14.0445 0.865517 14.3772 1.16343 14.5659L19.4912 26.1499Z" fill="#2E86AB"/>
<path fill-rule="evenodd" clip-rule="evenodd" d="M37.9617 15.3328C36.42 14.017 34.4364 13.3392 32.413 13.4385C28.5599 13.5453 25.5935 15.8095 25.6475 18.6024C25.6723 19.7146 26.149 20.7672 26.9707 21.517C28.4454 22.7732 30.3298 23.446 32.2662 23.4088H32.5318C36.3725 23.302 39.3513 21.0379 39.2973 18.2449C39.2675 17.1327 38.7859 16.0801 37.9616 15.3328H37.9617ZM37.3386 18.2846C37.3386 19.9132 35.1539 21.3556 32.5049 21.4227C30.9929 21.5344 29.4959 21.0602 28.3216 20.0995C27.8723 19.6998 27.6042 19.1362 27.5793 18.5379C27.5793 16.9093 29.764 15.4669 32.413 15.3998H32.624C34.0664 15.3353 35.4816 15.807 36.5963 16.7231C37.0332 17.1128 37.3014 17.6615 37.3386 18.2449L37.3386 18.2846Z" fill="#2E86AB"/>
<path fill-rule="evenodd" clip-rule="evenodd" d="M38.7168 30.2283C40.0152 30.1936 41.3037 30.484 42.463 31.0749C42.6095 31.1642 42.7808 31.2114 42.9521 31.2089C43.1309 31.2114 43.3046 31.1667 43.4561 31.0749L52.9894 25.4343C53.2402 25.2804 53.409 25.0247 53.4537 24.7342C53.5058 24.4437 53.4214 24.1458 53.2278 23.9249C52.4829 23.1503 52.4308 21.9412 53.1086 21.1046C53.2774 20.8762 53.3395 20.5882 53.2799 20.3101C53.2153 20.0395 53.044 19.8062 52.8032 19.6622L29.3817 6.12931C29.0962 5.99277 28.766 5.99277 28.4805 6.12931C27.557 6.53646 26.5639 6.75742 25.5535 6.77974C24.5182 6.81698 23.4879 6.64071 22.5222 6.26335C22.2565 6.14419 21.9537 6.14419 21.688 6.26335L13.1353 10.5931C12.6512 10.8389 12.4576 11.4297 12.6984 11.9163C12.825 12.1795 12.8945 12.4699 12.897 12.7629C12.8523 13.6219 12.4129 14.4088 11.7053 14.8955C11.4546 15.0966 11.3156 15.4069 11.3354 15.7272C11.3528 16.0474 11.5241 16.3404 11.7972 16.5117L34.8488 31.0773V31.0749C35.1542 31.2611 35.5389 31.2611 35.8419 31.0749C36.7281 30.6032 37.7014 30.3152 38.7019 30.2283L38.7168 30.2283ZM35.4447 29.1285L13.8752 15.5187C14.5206 14.7466 14.8682 13.7684 14.8558 12.763C14.8558 12.5098 14.8285 12.2565 14.7764 12.0083L22.2048 8.2098C23.3021 8.57227 24.4516 8.74109 25.6085 8.7113C26.7034 8.68895 27.7882 8.47793 28.8111 8.09064L50.9513 20.8939C50.7403 21.4053 50.6385 21.9565 50.646 22.5101C50.6609 23.1134 50.8098 23.7043 51.0829 24.243L42.9275 29.1289C41.6017 28.5554 40.1717 28.2674 38.7293 28.2823C37.5897 28.3394 36.4726 28.6274 35.4447 29.1289L35.4447 29.1285Z" fill="#2E86AB"/>
<path fill-rule="evenodd" clip-rule="evenodd" d="M1.12461 21.0255L7.99624 25.3676V25.3701C8.15513 25.4694 8.33884 25.524 8.52752 25.529C8.9744 25.5339 9.36913 25.2385 9.49325 24.809C9.61738 24.3795 9.43863 23.9202 9.05631 23.6869L2.18468 19.3571C1.96372 19.1858 1.6807 19.1138 1.40263 19.161C1.12706 19.2082 0.883754 19.3695 0.732307 19.6079C0.583346 19.8437 0.53866 20.1342 0.613141 20.4048C0.6901 20.6729 0.87382 20.9013 1.12457 21.0255H1.12461Z" fill="#2E86AB"/>
<path fill-rule="evenodd" clip-rule="evenodd" d="M62.6817 27.8056L38.3717 42.1977L37.9074 41.9073C37.4431 41.6143 36.8299 41.7533 36.537 42.2176C36.2465 42.6818 36.3856 43.2975 36.8498 43.588L37.8305 44.1962L37.828 44.1987C37.9869 44.303 38.1706 44.3576 38.3593 44.3576C38.5356 44.3576 38.7093 44.3129 38.8608 44.2235L63.6869 29.5136C64.1437 29.238 64.2951 28.6521 64.0319 28.1904C63.9103 27.9545 63.6943 27.7807 63.4386 27.7063C63.1829 27.6343 62.9098 27.669 62.6814 27.8056L62.6817 27.8056Z" fill="#2E86AB"/>
<path fill-rule="evenodd" clip-rule="evenodd" d="M1.12459 26.5739L3.93247 28.349C4.08888 28.4532 4.2726 28.5079 4.46128 28.5079C4.90815 28.5128 5.30536 28.2174 5.42948 27.7879C5.55113 27.3584 5.37238 26.8991 4.99254 26.6658L2.18465 24.8931C1.72785 24.6374 1.15187 24.7765 0.861425 25.2109C0.563508 25.6603 0.68019 26.2661 1.12458 26.5739H1.12459Z" fill="#2E86AB"/>
<path fill-rule="evenodd" clip-rule="evenodd" d="M62.6816 33.3394L38.3716 47.7461L37.9074 47.4408C37.4531 47.1801 36.8721 47.3191 36.5842 47.7585C36.3135 48.2104 36.4476 48.7963 36.8895 49.0842L37.8702 49.7074L37.8677 49.7049C38.0266 49.8092 38.2103 49.8663 38.399 49.8638C38.5752 49.8613 38.749 49.8117 38.9005 49.7198L63.6871 35.0474C64.1439 34.7743 64.2954 34.1859 64.0322 33.7241C63.7641 33.245 63.1608 33.0737 62.6817 33.3393L62.6816 33.3394Z" fill="#2E86AB"/>
<path fill-rule="evenodd" clip-rule="evenodd" d="M17.8476 28.9305C9.90319 28.9305 1.56152 30.9961 0.702252 34.8243C0.642669 34.9484 0.610395 35.0825 0.60791 35.2215V57.002C0.635219 61.2646 9.5203 63.5558 17.8474 63.5558C26.1763 63.5558 35.1389 61.2643 35.1389 56.9346L35.1414 35.2215C35.1389 35.0825 35.1066 34.9484 35.0471 34.8243C34.2402 30.9961 25.7921 28.9305 17.8477 28.9305H17.8476ZM33.2077 50.6061C33.2077 52.5128 27.381 55.1742 17.9023 55.1742C8.42107 55.1742 2.59684 52.5252 2.59684 50.6061L2.59436 46.197C5.6803 48.4214 11.862 49.6007 17.8998 49.6007C23.9376 49.6007 30.1215 48.4214 33.2053 46.197L33.2077 50.6061ZM33.2077 43.0462C33.2077 45.0174 27.381 47.6664 17.8476 47.6664C8.3143 47.6664 2.5943 45.0174 2.5943 43.0462V38.637C5.68024 40.8491 11.862 42.0258 17.8997 42.0258C23.9375 42.0258 30.1215 40.8465 33.2052 38.637L33.2077 43.0462ZM17.8476 30.916C27.3288 30.916 33.1531 33.565 33.1531 35.484C33.1556 37.4056 27.381 40.0397 17.8476 40.0397C8.3143 40.0397 2.54218 37.3907 2.54218 35.484C2.54218 33.5774 8.42107 30.916 17.8476 30.916ZM17.8476 61.5688C8.36642 61.5688 2.54218 58.9198 2.54218 57.0008V53.7709C5.62812 55.9829 11.8099 57.1597 17.8476 57.1597C23.8854 57.1597 30.0694 55.9804 33.1531 53.7709V57.0008C33.2077 58.9074 27.381 61.5688 17.8476 61.5688Z" fill="#2E86AB"/>
</svg>
