<svg xmlns="http://www.w3.org/2000/svg" width="22" height="22" viewBox="0 0 22 22">
    <g fill="none" fill-rule="evenodd">
        <g fill="#38424B">
            <path d="M10.584 11.667l-6.201 6.887a.404.404 0 0 1-.6-.54l6.2-6.888a.404.404 0 0 1 .6.54z"/>
            <path d="M11.09 15.411a.403.403 0 0 1-.704-.254l-.144-3.738-3.992.035a.403.403 0 1 1-.007-.807l4.384-.038a.404.404 0 0 1 .408.388l.158 4.128a.403.403 0 0 1-.103.286z"/>
        </g>
        <path fill-rule="nonzero" stroke="#38424B" stroke-width=".8" d="M.4.4h21.2v21.2H.4z"/>
    </g>
</svg>
