<svg width="65" height="62" viewBox="0 0 65 62" fill="none" xmlns="http://www.w3.org/2000/svg">
<mask id="mask0" mask-type="alpha" maskUnits="userSpaceOnUse" x="0" y="-1" width="65" height="62">
<path fill-rule="evenodd" clip-rule="evenodd" d="M0 -0.000183105H64.0019V60.2136H0V-0.000183105Z" fill="white"/>
</mask>
<g mask="url(#mask0)">
<path fill-rule="evenodd" clip-rule="evenodd" d="M53.372 38.9426H42.921C40.478 35.5406 36.498 33.3136 32 33.3136C27.502 33.3136 23.522 35.5416 21.079 38.9426H12.845V33.2896C12.845 32.7536 12.411 32.3196 11.875 32.3196C11.339 32.3196 10.905 32.7536 10.905 33.2896V38.9426H10.627C5.836 38.9426 1.939 35.0446 1.939 30.2546C1.939 25.4586 5.837 21.5566 10.647 21.5566C11.23 21.5566 11.723 21.0376 11.597 20.3636C11.597 12.9146 18.897 7.60759 26.033 10.0426C26.48 10.1966 26.973 10.0036 27.198 9.58859C35.415 -5.49541 58.864 3.50159 54.268 20.5166C54.198 20.7766 54.24 21.0546 54.383 21.2836C54.526 21.5126 54.758 21.6706 55.021 21.7216C59.101 22.5036 62.06 26.0916 62.06 30.2536C62.06 35.0446 58.163 38.9426 53.372 38.9426M32 58.2736C25.653 58.2736 20.49 53.1106 20.49 46.7636C20.49 40.4176 25.653 35.2536 32 35.2536C38.347 35.2536 43.51 40.4176 43.51 46.7636C43.51 53.1106 38.347 58.2736 32 58.2736M56.378 20.0566C60.424 1.61559 35.295 -7.74041 25.89 7.96859C17.922 5.77359 10.104 11.5756 9.677 19.6576C4.26 20.1416 0 24.7086 0 30.2536C0 36.1136 4.768 40.8816 10.628 40.8816H10.906V45.7696L8.983 43.5346C8.634 43.1286 8.022 43.0836 7.616 43.4326C7.21 43.7816 7.164 44.3936 7.514 44.7996L11.145 49.0196C11.242 49.0536 11.954 49.7836 12.615 49.0196L16.246 44.7996C16.595 44.3936 16.55 43.7816 16.144 43.4326C15.738 43.0836 15.126 43.1296 14.777 43.5346L12.847 45.7776V40.8816H19.925C19.055 42.6616 18.552 44.6516 18.552 46.7626C18.552 54.1786 24.586 60.2136 32.002 60.2136C39.418 60.2136 45.452 54.1786 45.452 46.7626C45.452 44.6516 44.95 42.6606 44.079 40.8816H53.374C59.234 40.8816 64.002 36.1136 64.002 30.2536C64 25.5066 60.85 21.3696 56.378 20.0566" fill="#2E86AB"/>
</g>
<path fill-rule="evenodd" clip-rule="evenodd" d="M31.9597 41.5198C33.1417 41.5198 34.1037 42.4778 34.1037 43.6558C34.1037 44.1918 34.5377 44.6258 35.0737 44.6258C35.6097 44.6258 36.0437 44.1918 36.0437 43.6558C36.0437 41.7438 34.7127 40.1458 32.9297 39.7078V38.8518C32.9297 38.3158 32.4957 37.8818 31.9597 37.8818C31.4237 37.8818 30.9897 38.3158 30.9897 38.8518V39.6998C29.9617 39.9498 29.0637 40.5898 28.4887 41.5218C27.7227 42.7638 27.6787 44.2638 28.3677 45.6388C29.0057 46.9098 30.3917 47.7118 31.9867 47.7328C32.6457 47.7408 33.2557 48.0458 33.6607 48.5698C34.0677 49.0968 34.2007 49.7548 34.0347 50.4218C33.8537 51.1548 33.2327 51.7658 32.4927 51.9418C31.8207 52.1008 31.1607 51.9608 30.6357 51.5468C30.1177 51.1378 29.8217 50.5268 29.8217 49.8688C29.8217 49.3328 29.3877 48.8988 28.8517 48.8988C28.3157 48.8988 27.8817 49.3328 27.8817 49.8688C27.8817 51.1228 28.4467 52.2888 29.4327 53.0678C29.8967 53.4338 30.4287 53.6758 30.9887 53.8128V54.6728C30.9887 55.2088 31.4227 55.6428 31.9587 55.6428C32.4947 55.6428 32.9287 55.2088 32.9287 54.6728V53.8298C32.9327 53.8288 32.9367 53.8288 32.9407 53.8278C34.3897 53.4828 35.5577 52.3298 35.9167 50.8888C36.2237 49.6528 35.9607 48.3758 35.1947 47.3848C34.4267 46.3888 33.2657 45.8088 32.0107 45.7928C31.3317 45.7838 30.4727 45.5108 30.1007 44.7688C29.5787 43.7278 29.8997 42.9258 30.1377 42.5408C30.5337 41.9008 31.2147 41.5198 31.9597 41.5198" fill="#2E86AB"/>
<mask id="mask1" mask-type="alpha" maskUnits="userSpaceOnUse" x="47" y="44" width="10" height="18">
<path fill-rule="evenodd" clip-rule="evenodd" d="M47.5205 44.3381H56.7222V61.3738H47.5205V44.3381Z" fill="white"/>
</mask>
<g mask="url(#mask1)">
<path fill-rule="evenodd" clip-rule="evenodd" d="M52.8565 44.6751C52.7525 44.5971 52.5445 44.3381 52.1245 44.3381C51.8315 44.3381 51.5465 44.4871 51.3855 44.6751L47.7545 48.8941C47.4065 49.3001 47.4515 49.9111 47.8575 50.2611C48.2635 50.6111 48.8755 50.5651 49.2235 50.1581L51.1545 47.9171V60.4041C51.1555 60.9401 51.5885 61.3741 52.1255 61.3741C52.6615 61.3741 53.0945 60.9401 53.0945 60.4041V47.9241L55.0175 50.1581C55.3655 50.5631 55.9765 50.6121 56.3845 50.2611C56.7915 49.9111 56.8365 49.2991 56.4875 48.8941L52.8565 44.6751Z" fill="#2E86AB"/>
</g>
<path fill-rule="evenodd" clip-rule="evenodd" d="M40.1263 3.84888C39.5903 3.84888 39.1562 4.28288 39.1562 4.81888C39.1562 5.35488 39.5903 5.78888 40.1263 5.78888C43.5122 5.78888 46.6402 7.33788 48.7072 10.0379C50.7622 12.7209 51.4242 16.1719 50.5232 19.5069C50.3832 20.0239 50.6893 20.5559 51.2063 20.6959C51.7313 20.8369 52.2573 20.5229 52.3953 20.0129C53.4553 16.0919 52.6722 12.0259 50.2472 8.85988C47.8102 5.67488 44.1212 3.84888 40.1263 3.84888" fill="#2E86AB"/>
</svg>
