<svg xmlns="http://www.w3.org/2000/svg" width="154" height="77" viewBox="0 0 154 77">
    <defs>
        <linearGradient id="a" x1="51.175%" x2="51.175%" y1="10.547%" y2="95.993%">
            <stop offset="0%" stop-color="#0FA"/>
            <stop offset="100%" stop-color="#1ECD93"/>
        </linearGradient>
        <linearGradient id="b" x1="49.861%" x2="49.861%" y1="97.308%" y2="9.232%">
            <stop offset="0%" stop-color="#FF433D"/>
            <stop offset="100%" stop-color="#FF6F6B"/>
        </linearGradient>
    </defs>
    <g fill="none" fill-rule="evenodd">
        <path fill="url(#a)" fill-rule="nonzero" d="M154 0c-42.526 0-76.319 33.669-76.319 76.195 3.96 0 6.428.124 10.903.124-.462-8.735 4.089-29.301 21.124-46.337C130.15 12.265 147.186 12.265 154 12.265V0z" transform="matrix(-1 0 0 1 231.681 0)"/>
        <path fill="url(#b)" fill-rule="nonzero" d="M76.319 0C33.793 0 0 33.669 0 76.195c3.96 0 6.427.124 10.903.124-.462-8.735 4.088-29.301 21.124-46.337 20.442-17.717 37.477-17.717 44.292-17.717V0z"/>
        <path fill="#3A424C" stroke="#3C424D" d="M74.056 25.545l-5.272 5.458a.763.763 0 0 1-1.103.02.855.855 0 0 1-.246-.548.855.855 0 0 1 .227-.556l6.588-6.822a.763.763 0 0 1 1.103-.019l6.822 6.588c.32.309.328.783.02 1.103a.763.763 0 0 1-1.104.02l-5.458-5.272 1.65 47.728c.008.474-.3.794-.775.802-.472.008-.795-.3-.803-.775l-1.65-47.727z"/>
        <path fill="#3A424C" fill-rule="nonzero" d="M84.496 77a7.496 7.496 0 1 0-14.992 0h14.992z"/>
    </g>
</svg>
