<?xml version="1.0" encoding="UTF-8"?>
<svg width="22px" height="17px" viewBox="0 0 22 17" version="1.1" xmlns="http://www.w3.org/2000/svg" xmlns:xlink="http://www.w3.org/1999/xlink">
    <!-- Generator: sketchtool 52.5 (67469) - http://www.bohemiancoding.com/sketch -->
    <title>8F5F27F2-D6E9-4295-9FCF-24802804F37B</title>
    <desc>Created with sketchtool.</desc>
    <g id="Hedgefunds" stroke="none" stroke-width="1" fill="none" fill-rule="evenodd">
        <g id="hedgefunds_close" transform="translate(-136.000000, -635.000000)" fill="#2E86AB" stroke="#2E86AB" stroke-width="0.5">
            <g id="Group" transform="translate(0.000000, 620.000000)">
                <g id="Group-4" transform="translate(137.000000, 15.000000)">
                    <path d="M19.7876923,16.3712821 L10.1723077,0.345641026 C10.1001923,0.225448718 9.90087179,0.225448718 9.82876923,0.345641026 L0.213384615,16.3712821 C0.176325641,16.4333821 0.175323077,16.5105051 0.211382051,16.5726051 C0.246438462,16.6357051 0.31254359,16.6747692 0.384658974,16.6747692 L19.6154282,16.6747692 C19.6875436,16.6747692 19.7546513,16.6357077 19.7897077,16.5726051 C19.8247641,16.5105051 19.8237615,16.4333821 19.7877026,16.3712821 L19.7876923,16.3712821 Z M0.738205128,16.2741256 L10,0.838484615 L19.2617923,16.2741256 L0.738205128,16.2741256 Z" id="Fill-1"></path>
                    <path d="M9.79974359,6.05769231 L9.79974359,10.0641026 C9.79974359,10.1742795 9.88988718,10.2644231 10.0000641,10.2644231 C10.110241,10.2644231 10.2003846,10.1742795 10.2003846,10.0641026 L10.2003846,6.05769231 C10.2003846,5.94751538 10.110241,5.85737179 10.0000641,5.85737179 C9.88988718,5.85737179 9.79974359,5.94751538 9.79974359,6.05769231 Z" id="Fill-2"></path>
                    <path d="M10,12.2676923 C9.88982308,12.2676923 9.79967949,12.3578359 9.79967949,12.4680128 L9.79967949,13.2692949 C9.79967949,13.3794718 9.88982308,13.4696154 10,13.4696154 C10.1101769,13.4696154 10.2003205,13.3794718 10.2003205,13.2692949 L10.2003205,12.4680128 C10.2003205,12.3578359 10.1101769,12.2676923 10,12.2676923 Z" id="Fill-3"></path>
                </g>
            </g>
        </g>
    </g>
</svg>