<svg xmlns="http://www.w3.org/2000/svg" width="23" height="22" viewBox="0 0 23 22">
    <g fill="none" fill-rule="evenodd" stroke="#38424B" stroke-width=".8" transform="translate(0 1)">
        <ellipse cx="11.333" cy="2.889" rx="2.444" ry="2.889"/>
        <ellipse cx="18.889" cy="15.778" rx="2.889" ry="2.444" transform="rotate(29 18.889 15.778)"/>
        <ellipse cx="3.778" cy="15.778" rx="2.889" ry="2.444" transform="rotate(-21 3.778 15.778)"/>
        <path d="M9.608 5.126l1.768 2.114 1.656-2.114M2.002 14.095c-.081-3.063.797-4.992 2.635-5.787 1.837-.796 3.48-1.107 4.927-.934v1.604c-2.477.857-3.666 1.614-3.566 2.272M8.552 10.45c1.967 1.07 2.733 2.392 2.297 3.963M4.51 18.302c2.68 1.851 4.94 1.89 6.778.118"/>
        <path d="M18.52 18.372c-3.347 1.516-5.715 1.516-7.104 0-2.084-2.274-2.893-3.18-2.768-3.583.083-.269.596-.55 1.537-.842 1.635 1.814 2.766 2.674 3.393 2.581.626-.093 1.114-.724 1.464-1.893l-2.27-.533-1.356.84M21.09 14.381c-.051-4.139-1.2-6.25-3.446-6.335M12.078 14.29c-.004-2.347.889-3.716 2.676-4.11M5.69 13.442h2.113l-1.056 2.043M16.094 15.218l-.388-2.261 1.758.304M9.013 1.816C6.73 3.266 5.59 4.28 5.59 4.852v3.02"/>
        <path d="M13.73 1.868c2.542 1.478 3.813 2.666 3.813 3.565v2.452c-.78 2.845-1.416 4.268-1.906 4.268-.737 0-1.232-1.418-1.114-1.655.118-.238.749-2.982.523-3.235-.15-.168-.837-.253-2.06-.253v2.191l.744.433-1.327.864h-1.987L8.656 9.2M13.742 9.664l.99.146M8.085 9.56l.544.929-.272 1.431"/>
    </g>
</svg>
