<svg xmlns="http://www.w3.org/2000/svg" width="23" height="16" viewBox="0 0 23 16">
    <g fill="none" fill-rule="evenodd" stroke="#38424B">
        <path d="M1.329 7.288a.754.754 0 0 0 0 .91c3.235 4.104 6.695 6.187 10.285 6.187s7.05-2.082 10.286-6.188a.754.754 0 0 0-.001-.909C18.663 3.183 15.203 1.1 11.614 1.1c-3.59 0-7.05 2.083-10.285 6.188z"/>
        <path d="M14.137 6.426l7.915-5.44-7.915 5.44a2.85 2.85 0 0 1-2.523 4.164 2.84 2.84 0 0 1-2.133-.965l-8.305 5.708 8.305-5.708a2.835 2.835 0 0 1-.714-1.882 2.85 2.85 0 0 1 2.847-2.847 2.85 2.85 0 0 1 2.523 1.53z"/>
    </g>
</svg>
