<svg xmlns="http://www.w3.org/2000/svg" width="19" height="18" viewBox="0 0 19 18">
    <g fill="none" fill-rule="evenodd">
        <path fill="#38424B" stroke="#38424B" stroke-width=".2" d="M8.224 11.617a.14.14 0 0 1 .107.04.145.145 0 0 1 .038.105V12h-3.88v-.145a.259.259 0 0 1 .085-.178l2.052-2.078c.17-.173.328-.34.472-.502a3.96 3.96 0 0 0 .376-.488c.107-.165.19-.333.249-.506.06-.173.09-.357.09-.553 0-.22-.038-.413-.111-.576a1.14 1.14 0 0 0-.719-.635 1.655 1.655 0 0 0-1.026.01c-.16.059-.302.14-.425.243a1.334 1.334 0 0 0-.306.37c-.08.143-.137.3-.168.47-.02.062-.046.103-.078.122a.215.215 0 0 1-.134.022l-.209-.034c.037-.258.108-.488.213-.689a1.7 1.7 0 0 1 .4-.51 1.68 1.68 0 0 1 .56-.316c.213-.073.442-.109.689-.109.23 0 .448.034.657.1.208.067.392.167.552.302.16.134.287.303.38.506.094.202.14.44.14.712 0 .226-.034.437-.103.63-.07.195-.164.381-.283.56a4.093 4.093 0 0 1-.414.52c-.158.169-.323.34-.496.516L5.05 11.685a2.563 2.563 0 0 1 .578-.068h2.596zm3.906-1.666V6.802c0-.048.002-.1.007-.157l.014-.174-2.6 3.48h2.58zm1.458 0v.221a.1.1 0 0 1-.028.075c-.018.018-.047.027-.087.027h-.986V12h-.357v-1.726H9.287a.152.152 0 0 1-.098-.027.14.14 0 0 1-.046-.075l-.039-.2 3.022-3.994h.361V9.95h1.101z"/>
        <path fill="#38424B" fill-rule="nonzero" d="M16.472 11.891l-.954-2.953 2.945.573z"/>
        <path fill-rule="nonzero" stroke="#38424B" stroke-width=".5" d="M9 17c-3.5 0-8-2.5-8-8 0-6.874 6-8 8-8s8 1 8 8.5"/>
        <path fill-rule="nonzero" stroke="#38424B" stroke-linecap="square" stroke-width=".5" d="M11.5 15h5M14 12.5v5"/>
    </g>
</svg>
