<svg xmlns="http://www.w3.org/2000/svg" width="154" height="77" viewBox="0 0 154 77">
    <defs>
        <linearGradient id="a" x1="51.175%" x2="51.175%" y1="10.547%" y2="95.993%">
            <stop offset="0%" stop-color="#0FA"/>
            <stop offset="100%" stop-color="#1ECD93"/>
        </linearGradient>
        <linearGradient id="b" x1="49.861%" x2="49.861%" y1="97.308%" y2="9.232%">
            <stop offset="0%" stop-color="#FF433D"/>
            <stop offset="100%" stop-color="#FF6F6B"/>
        </linearGradient>
    </defs>
    <g fill="none" fill-rule="evenodd">
        <path fill="url(#a)" fill-rule="nonzero" d="M154 0c-42.526 0-76.319 33.669-76.319 76.195 3.96 0 6.428.124 10.903.124-.462-8.735 4.089-29.301 21.124-46.337C130.15 12.265 147.186 12.265 154 12.265V0z" transform="matrix(-1 0 0 1 231.681 0)"/>
        <path fill="url(#b)" fill-rule="nonzero" d="M76.319 0C33.793 0 0 33.669 0 76.195c3.96 0 6.427.124 10.903.124-.462-8.735 4.088-29.301 21.124-46.337 20.442-17.717 37.477-17.717 44.292-17.717V0z"/>
        <path fill="#3A424C" stroke="#3C424D" d="M32.344 57.733l2.842 7.035a.763.763 0 0 1-.431 1.016.855.855 0 0 1-.6.003.855.855 0 0 1-.416-.434l-3.552-8.793a.763.763 0 0 1 .43-1.016l8.794-3.553a.763.763 0 0 1 1.016.431.763.763 0 0 1-.432 1.016L32.96 56.28l44.272 17.906c.437.185.603.598.418 1.034-.184.434-.598.604-1.035.418L32.344 57.733z"/>
        <path fill="#3A424C" fill-rule="nonzero" d="M84.496 77a7.496 7.496 0 1 0-14.992 0h14.992z"/>
    </g>
</svg>
