<svg xmlns="http://www.w3.org/2000/svg" width="23" height="16" viewBox="0 0 23 16">
    <g  fill-rule="evenodd">
        <path d="M11.614 15.333c-3.895 0-7.606-2.203-11.03-6.549a1.7 1.7 0 0 1 0-2.082C4.007 2.355 7.717.152 11.613.152c3.895 0 7.606 2.203 11.03 6.549.474.604.474 1.48.001 2.083-3.425 4.346-7.136 6.549-11.03 6.549h-.001zM1.329 7.288a.754.754 0 0 0 0 .91c3.235 4.104 6.695 6.187 10.285 6.187s7.05-2.082 10.286-6.188a.754.754 0 0 0-.001-.909C18.663 3.183 15.203 1.1 11.614 1.1c-3.59 0-7.05 2.083-10.285 6.188z"/>
        <path d="M11.614 11.538a3.8 3.8 0 0 1-3.796-3.795 3.8 3.8 0 0 1 3.796-3.796 3.8 3.8 0 0 1 3.796 3.796 3.8 3.8 0 0 1-3.796 3.795zm0-6.642a2.85 2.85 0 0 0-2.847 2.847 2.85 2.85 0 0 0 2.847 2.846 2.85 2.85 0 0 0 2.846-2.846 2.85 2.85 0 0 0-2.846-2.847z"/>
    </g>
</svg>
