<svg xmlns="http://www.w3.org/2000/svg" width="94" height="87" viewBox="0 0 94 87">
    <g fill="#38424B" fill-rule="evenodd">
        <path d="M35.25 4.813a1.561 1.561 0 0 1 1.105 2.667 1.561 1.561 0 1 1-2.668-1.105 1.564 1.564 0 0 1 1.563-1.563z"/>
        <path d="M66.531.125a3.908 3.908 0 0 1 3.906 3.906v19.531h19.531a3.908 3.908 0 0 1 3.906 3.906v55.5c0 1.036-.41 2.032-1.144 2.762a3.896 3.896 0 0 1-2.762 1.145H4.03a3.896 3.896 0 0 1-2.762-1.145 3.896 3.896 0 0 1-1.144-2.762V4.03c0-1.035.41-2.03 1.144-2.761A3.896 3.896 0 0 1 4.03.124l62.501.001zM17.312 85.313h72.656a2.346 2.346 0 0 0 2.344-2.344v-55.5a2.346 2.346 0 0 0-2.344-2.344H17.312v60.188zm46.875-61.75V12.625H6.375v10.938h57.812zm-62.5 59.65c0 1.158 1.05 2.1 2.344 2.1H15.75V25.125H4.03c-1.292 0-2.343.941-2.343 2.1v55.988zm0-58.869h.094l.203-.125L2.39 24l.235-.093.468-.141.157-.203c.238-.024.48-.024.718 0h.844v-11.72c0-.206.082-.405.23-.55a.768.768 0 0 1 .551-.23h59.375c.43 0 .782.351.782.78v11.72h3.125V4.032a2.346 2.346 0 0 0-2.344-2.344H4.03a2.346 2.346 0 0 0-2.344 2.344v20.312z"/>
        <path d="M82.938 28.941v52.555c0 .183-.082.36-.23.487a.82.82 0 0 1-.551.204H21.219a.82.82 0 0 1-.551-.204.643.643 0 0 1-.23-.487V28.94c0-.183.082-.36.23-.487a.82.82 0 0 1 .55-.204h60.939c.43 0 .781.31.781.691zm-1.563.692H22.002v51.17h59.374v-51.17zM87.562 54a1.561 1.561 0 0 1 1.106 2.668A1.561 1.561 0 1 1 86 55.563 1.564 1.564 0 0 1 87.563 54zM8.906 52a3.906 3.906 0 0 1 2.762 6.668A3.906 3.906 0 1 1 8.906 52zm0 6.25c.95 0 1.801-.57 2.164-1.445a2.339 2.339 0 0 0-.507-2.555 2.339 2.339 0 0 0-2.555-.508 2.341 2.341 0 0 0-1.445 2.164 2.346 2.346 0 0 0 2.343 2.344zM84.656 19.812a.784.784 0 0 1-1.11 0l-2.343-2.344a.787.787 0 0 1 0-1.11.787.787 0 0 1 1.11 0l1.015.954v-3.516a7.032 7.032 0 0 0-7.031-7.03.784.784 0 0 1-.782-.782c0-.43.352-.781.782-.781a8.61 8.61 0 0 1 8.593 8.593v3.516l1.016-.937a.787.787 0 0 1 1.11 0 .787.787 0 0 1 0 1.109l-2.36 2.328z"/>
    </g>
</svg>
