<?xml version="1.0" encoding="UTF-8"?>
<svg width="15px" height="16px" viewBox="0 0 15 16" version="1.1" xmlns="http://www.w3.org/2000/svg" xmlns:xlink="http://www.w3.org/1999/xlink">
    <g id="UpdatePortfolio--dark-Copy-2" stroke="none" stroke-width="1" fill="none" fill-rule="evenodd">
        <g id="Group" transform="translate(-1.000000, -1.000000)" stroke="#38424B" stroke-width="0.5">
            <path d="M7.5,13.5 C10.8137085,13.5 13.5,10.8137085 13.5,7.5 C13.5,4.1862915 10.8137085,1.5 7.5,1.5 C4.1862915,1.5 1.5,4.1862915 1.5,7.5" id="Oval-Copy-19" stroke-linecap="round" stroke-linejoin="round" transform="translate(7.500000, 7.500000) rotate(-80.000000) translate(-7.500000, -7.500000) "></path>
            <path d="M7.71916417,8.44262695 C9.00125376,8.44262695 10.0405927,7.40328798 10.0405927,6.12119838 C10.0405927,4.83910878 9.00125376,3.79976981 7.71916417,3.79976981 C6.43707457,3.79976981 5.3977356,4.83910878 5.3977356,6.12119838 C5.3977356,7.40328798 6.43707457,8.44262695 7.71916417,8.44262695 Z" id="Oval-Copy-20"></path>
            <path d="M3.77172852,12 C4.47717492,10.4845959 5.79298681,9.72689383 7.71916417,9.72689383 C8.70710708,9.72689383 9.55411832,9.9644344 10.2601979,10.4395155" id="Path-4-Copy" stroke-linecap="round" stroke-linejoin="round"></path>
        </g>
        <polyline id="Path-7-Copy" stroke="#38424B" stroke-width="0.5" stroke-linecap="round" stroke-linejoin="round" points="9 12.0477905 11.8172607 9 14.315918 12.0477905"></polyline>
        <line x1="11.8172607" y1="15.4152832" x2="11.8172607" y2="11" id="Path-8-Copy" stroke="#38424B" stroke-width="0.5" stroke-linecap="round" stroke-linejoin="round"></line>
    </g>
</svg>