<svg xmlns="http://www.w3.org/2000/svg" width="17" height="14" viewBox="0 0 17 14">
    <g fill-rule="evenodd" stroke-width=".3">
        <path d="M4.24 1.038H16.5c.15 0 .27.157.27.35 0 .192-.12.348-.27.348H4.239c-.149 0-.27-.156-.27-.349.001-.192.122-.35.271-.35zM4.24 6.932H16.5c.15 0 .27.157.27.35 0 .193-.12.349-.27.349H4.239c-.149 0-.27-.156-.27-.35.001-.192.122-.349.271-.349zM4.24 12.827H16.5c.15 0 .27.156.27.35 0 .192-.12.348-.27.348H4.239c-.149 0-.27-.156-.27-.349.001-.193.122-.349.271-.349zM.58 6.932h.917a.349.349 0 1 1 0 .699H.58a.349.349 0 1 1 0-.699zM1.496 1.736H.579a.349.349 0 1 1 0-.698h.917a.349.349 0 1 1 0 .698zM.58 12.827h.917a.349.349 0 1 1 0 .698H.58a.349.349 0 1 1 0-.698z"/>
    </g>
</svg>
