<svg xmlns="http://www.w3.org/2000/svg" width="17" height="17" viewBox="0 0 17 17">
    <g  fill-rule="evenodd" stroke-width=".3">
        <path d="M15.347 1.653H12.37V.463a.298.298 0 1 0-.595 0v2.679a.298.298 0 1 0 .595 0v-.893h2.977c.493 0 .893.4.893.893v2.68L.76 5.82V3.142c0-.493.401-.893.893-.893h2.382v-.596H1.653c-.82 0-1.489.668-1.489 1.489v12.205c0 .82.669 1.489 1.489 1.489h13.695c.82 0 1.489-.669 1.489-1.489V3.142c-.001-.821-.669-1.49-1.49-1.49zm.893 13.694a.894.894 0 0 1-.893.893H1.653a.894.894 0 0 1-.893-.893v-8.93h15.481v8.93h-.001z"/>
        <path d="M4.927 3.44a.298.298 0 0 0 .298-.298v-.893h5.955v-.596H5.225V.463a.298.298 0 1 0-.595 0v2.679c0 .164.133.298.297.298z"/>
    </g>
</svg>
