<svg xmlns="http://www.w3.org/2000/svg" width="19" height="19" viewBox="0 0 19 19">
    <g fill="#2E86AB" fill-rule="evenodd" stroke="#2E86AB" stroke-width=".3">
        <path d="M8.277 12.583a.144.144 0 0 0 .205.128l5.98-2.99a.137.137 0 0 0 .078-.127c0-.056-.03-.1-.079-.127l-5.979-2.99a.143.143 0 0 0-.205.127v1.641L4.742 6.477a.152.152 0 0 0-.14.008.138.138 0 0 0-.062.119v5.98a.144.144 0 0 0 .205.127l3.535-1.768v1.64h-.003zm.28-5.75l5.523 2.76-5.527 2.762v-1.554l2.164-1.084a.137.137 0 0 0 .078-.127c0-.056-.03-.1-.078-.127L8.553 8.379V6.832h.004zM4.82 12.354V6.832L8.355 8.6l1.988.994-1.992.994-3.531 1.767z"/>
        <path d="M9.5 17.875c4.616 0 8.375-3.754 8.375-8.375S14.115 1.13 9.5 1.13c-4.616 0-8.37 3.754-8.37 8.37s3.754 8.375 8.37 8.375zm0-16.384c4.419 0 8.013 3.595 8.013 8.014 0 4.418-3.594 8.008-8.013 8.008-4.419 0-8.009-3.594-8.009-8.013 0-4.419 3.59-8.009 8.009-8.009z"/>
    </g>
</svg>
